<?xml version="1.0" encoding="utf-8"?>
<!-- Generator: Adobe Illustrator 16.0.0, SVG Export Plug-In . SVG Version: 6.00 Build 0)  -->
<!DOCTYPE svg PUBLIC "-//W3C//DTD SVG 1.1//EN" "http://www.w3.org/Graphics/SVG/1.1/DTD/svg11.dtd">
<svg version="1.1" id="Layer_1" xmlns="http://www.w3.org/2000/svg" xmlns:xlink="http://www.w3.org/1999/xlink" x="0px" y="0px"
	 width="360.124px" height="156.04px" viewBox="0 0 360.124 156.04" enable-background="new 0 0 360.124 156.04"
	 xml:space="preserve">
<g>
	<defs>
		<rect id="SVGID_1_" width="360.124" height="156.04"/>
	</defs>
	<clipPath id="SVGID_2_">
		<use xlink:href="#SVGID_1_"  overflow="visible"/>
	</clipPath>
	<path clip-path="url(#SVGID_2_)" fill="#CCA15B" d="M293.497,36.496c-2.081-0.184-4.204-0.184-6.272,0l-1.695-19.085
		c3.191-0.283,6.458-0.283,9.659,0L293.497,36.496z"/>
	<path clip-path="url(#SVGID_2_)" fill="#CCA15B" d="M293.497,106.906c-2.081,0.187-4.204,0.185-6.272,0.001l-1.695,19.084
		c3.191,0.284,6.458,0.284,9.659,0L293.497,106.906z"/>
	<path clip-path="url(#SVGID_2_)" fill="#CCA15B" d="M258.36,86.588c0.882,1.896,1.942,3.731,3.137,5.433l-15.68,11.01
		c-1.842-2.624-3.477-5.453-4.832-8.366L258.36,86.588z"/>
	<path clip-path="url(#SVGID_2_)" fill="#CCA15B" d="M319.339,51.382c1.198,1.71,2.26,3.548,3.135,5.432l17.376-8.074
		c-1.352-2.906-2.984-5.736-4.83-8.367L319.339,51.382z"/>
	<path clip-path="url(#SVGID_2_)" fill="#CCA15B" d="M319.339,92.021c1.198-1.71,2.26-3.549,3.135-5.433l17.376,8.075
		c-1.352,2.905-2.984,5.734-4.83,8.366L319.339,92.021z"/>
	<path clip-path="url(#SVGID_2_)" fill="#CCA15B" d="M258.36,56.816c0.882-1.895,1.942-3.732,3.137-5.432l-15.68-11.011
		c-1.842,2.623-3.477,5.453-4.832,8.367L258.36,56.816z"/>
	<path clip-path="url(#SVGID_2_)" fill="#CCA15B" d="M263.165,118.903c3.475,2.002,7.153,3.671,10.357,4.606l5.922-18.222
		c-2.036-0.606-4.415-1.683-6.691-2.993c-2.27-1.314-4.391-2.837-5.935-4.297l-12.82,14.24
		C256.411,114.545,259.696,116.897,263.165,118.903"/>
	<path clip-path="url(#SVGID_2_)" fill="#CCA15B" d="M317.669,24.5c3.47,2.006,6.755,4.357,9.169,6.666l-12.82,14.239
		c-1.543-1.46-3.665-2.982-5.937-4.298c-2.274-1.31-4.653-2.385-6.689-2.992l5.922-18.223
		C310.518,20.829,314.198,22.499,317.669,24.5"/>
	<path clip-path="url(#SVGID_2_)" fill="#CCA15B" d="M263.165,24.5c-3.469,2.006-6.754,4.357-9.167,6.666l12.82,14.239
		c1.544-1.46,3.665-2.982,5.935-4.298c2.276-1.31,4.655-2.385,6.691-2.992l-5.922-18.223C270.318,20.829,266.64,22.499,263.165,24.5
		"/>
	<path clip-path="url(#SVGID_2_)" fill="#CCA15B" d="M317.669,118.903c-3.471,2.002-7.151,3.671-10.355,4.606l-5.922-18.222
		c2.036-0.606,4.415-1.683,6.689-2.993c2.271-1.314,4.394-2.837,5.937-4.297l12.82,14.24
		C324.424,114.545,321.139,116.897,317.669,118.903"/>
	<path clip-path="url(#SVGID_2_)" fill="#CCA15B" d="M344.922,71.702c-0.001-4.008-0.396-8.029-1.189-11.273l-18.741,3.983
		c0.492,2.068,0.751,4.665,0.754,7.29c-0.003,2.625-0.262,5.223-0.754,7.29l18.741,3.983
		C344.525,79.73,344.921,75.708,344.922,71.702"/>
	<path clip-path="url(#SVGID_2_)" fill="#CCA15B" d="M235.914,71.702c0.003-4.008,0.396-8.029,1.188-11.273l18.741,3.983
		c-0.493,2.068-0.749,4.665-0.754,7.29c0.005,2.625,0.261,5.223,0.754,7.29l-18.741,3.983
		C236.311,79.73,235.917,75.708,235.914,71.702"/>
	<path clip-path="url(#SVGID_2_)" fill="#A7A9AC" d="M291.985,53.79c-1.061-0.094-2.14-0.094-3.191,0l-0.863-9.709
		c1.624-0.145,3.285-0.145,4.914,0L291.985,53.79z"/>
	<path clip-path="url(#SVGID_2_)" fill="#A7A9AC" d="M291.985,89.614c-1.061,0.093-2.14,0.093-3.191,0l-0.863,9.709
		c1.624,0.145,3.285,0.146,4.914,0L291.985,89.614z"/>
	<path clip-path="url(#SVGID_2_)" fill="#A7A9AC" d="M274.108,79.276c0.448,0.963,0.988,1.898,1.596,2.763l-7.979,5.603
		c-0.939-1.335-1.771-2.774-2.458-4.258L274.108,79.276z"/>
	<path clip-path="url(#SVGID_2_)" fill="#A7A9AC" d="M305.132,61.363c0.611,0.87,1.15,1.805,1.596,2.764l8.842-4.108
		c-0.688-1.479-1.521-2.919-2.46-4.257L305.132,61.363z"/>
	<path clip-path="url(#SVGID_2_)" fill="#A7A9AC" d="M305.132,82.04c0.611-0.869,1.15-1.806,1.596-2.764l8.842,4.107
		c-0.688,1.479-1.521,2.919-2.46,4.257L305.132,82.04z"/>
	<path clip-path="url(#SVGID_2_)" fill="#A7A9AC" d="M274.108,64.128c0.448-0.964,0.988-1.898,1.596-2.764l-7.979-5.602
		c-0.939,1.334-1.771,2.775-2.458,4.257L274.108,64.128z"/>
	<path clip-path="url(#SVGID_2_)" fill="#A7A9AC" d="M276.554,95.718c1.766,1.018,3.637,1.868,5.27,2.343l3.012-9.271
		c-1.035-0.31-2.247-0.855-3.404-1.522c-1.154-0.67-2.233-1.443-3.02-2.187l-6.522,7.245
		C273.116,93.5,274.788,94.696,276.554,95.718"/>
	<path clip-path="url(#SVGID_2_)" fill="#A7A9AC" d="M304.283,47.687c1.766,1.02,3.438,2.218,4.664,3.392l-6.521,7.245
		c-0.787-0.745-1.865-1.518-3.021-2.187c-1.156-0.667-2.367-1.215-3.403-1.523l3.012-9.271
		C300.644,45.819,302.517,46.668,304.283,47.687"/>
	<path clip-path="url(#SVGID_2_)" fill="#A7A9AC" d="M276.554,47.687c-1.766,1.02-3.438,2.218-4.665,3.392l6.522,7.245
		c0.786-0.745,1.865-1.518,3.02-2.187c1.157-0.667,2.369-1.215,3.404-1.523l-3.012-9.271
		C280.19,45.819,278.319,46.668,276.554,47.687"/>
	<path clip-path="url(#SVGID_2_)" fill="#A7A9AC" d="M304.283,95.718c-1.767,1.018-3.64,1.868-5.271,2.343l-3.012-9.271
		c1.036-0.31,2.247-0.855,3.403-1.522c1.156-0.67,2.234-1.443,3.021-2.187l6.521,7.245C307.721,93.5,306.049,94.696,304.283,95.718"
		/>
	<path clip-path="url(#SVGID_2_)" fill="#A7A9AC" d="M318.148,71.702c-0.002-2.039-0.203-4.085-0.604-5.736l-9.537,2.027
		c0.252,1.052,0.384,2.374,0.386,3.709c-0.002,1.335-0.134,2.657-0.386,3.709l9.537,2.027
		C317.945,75.787,318.146,73.74,318.148,71.702"/>
	<path clip-path="url(#SVGID_2_)" fill="#A7A9AC" d="M262.688,71.702c0.002-2.039,0.202-4.085,0.606-5.736l9.534,2.027
		c-0.25,1.052-0.383,2.374-0.384,3.709c0.001,1.335,0.134,2.657,0.384,3.709l-9.534,2.027
		C262.89,75.787,262.689,73.74,262.688,71.702"/>
	<path clip-path="url(#SVGID_2_)" d="M140.223,102.886h1.519V91.289h-1.519V102.886z M163.074,100.607l-5.47-9.288l-0.019-0.031
		h-1.911v11.598h1.457v-9.673l5.678,9.642l0.018,0.031h1.7V91.288h-1.453V100.607z M179.954,91.288h-3.096v11.598h3.064
		c3.696,0,5.902-2.152,5.902-5.758v-0.146C185.824,93.417,183.631,91.288,179.954,91.288 M184.256,97.111
		c0,2.909-1.549,4.511-4.365,4.511h-1.511v-9.088h1.493c3.623,0,4.383,2.419,4.383,4.448V97.111z M196.629,102.886h1.52V91.289
		h-1.52V102.886z M214.222,91.33l-0.013-0.042h-1.918l-3.962,11.515l-0.028,0.083h1.447l1.107-3.306h4.646l1.11,3.263l0.014,0.043
		h1.509L214.222,91.33z M211.282,98.349l1.904-5.65l1.902,5.65H211.282z"/>
	<path clip-path="url(#SVGID_2_)" d="M41.03,62.63h11.107v12.091c-2.953,1.194-6.418,1.713-11.3,1.713
		c-10.425,0-17.708-6.395-17.708-15.551c0-9.157,7.283-15.552,17.708-15.552c5.166,0,10.764,1.32,14.263,3.365l2.786,1.627v-5.874
		l-1.002-0.517c-4.119-2.13-9.969-3.352-16.047-3.352c-14.854,0-25.635,8.538-25.635,20.303c0,11.764,10.781,20.303,25.635,20.303
		c7.136,0,13.235-1.364,18.133-4.056l0.959-0.528V57.878H41.03V62.63z M79.528,67.172c0,6.089-1.382,8.632-9.938,8.632h-2.807v4.752
		h2.807c11.765,0,17.73-4.379,17.73-13.016V41.209h-7.792V67.172z M99.471,80.556h31.235v-4.752h-23.442V62.629h15.273v-4.751
		h-15.273V45.96h23.442v-4.751H99.471V80.556z M155.092,41.209h-14.8v39.347h7.792V63.521h7.008
		c10.886,0,17.388-4.161,17.388-11.129C172.48,45.389,165.979,41.209,155.092,41.209 M155.092,58.769h-7.008V45.96h7.008
		c8.455,0,9.595,3.251,9.595,6.432C164.688,55.545,163.547,58.769,155.092,58.769 M215.376,73.216
		c-3.434,1.955-8.692,3.218-13.395,3.218c-10.387,0-17.367-6.25-17.367-15.551c0-9.302,7.006-15.552,17.435-15.552
		c4.487,0,9.392,1.158,12.499,2.95l2.776,1.602v-5.805l-1.005-0.517c-3.697-1.894-8.897-2.981-14.271-2.981
		c-14.694,0-25.364,8.538-25.364,20.303c0,11.764,10.639,20.303,25.296,20.303c5.828,0,11.218-1.156,15.178-3.256l0.984-0.522
		v-5.766L215.376,73.216z"/>
</g>
<g>
	<path d="M18.167,119.372c0.046,0.115,0.129,0.22,0.25,0.314c0.121,0.095,0.287,0.182,0.5,0.259c0.212,0.078,0.485,0.151,0.817,0.22
		c0.671,0.149,1.167,0.356,1.485,0.621c0.318,0.264,0.478,0.629,0.478,1.095c0,0.258-0.051,0.494-0.153,0.706
		c-0.102,0.213-0.243,0.395-0.422,0.544s-0.395,0.264-0.647,0.345c-0.252,0.08-0.528,0.12-0.826,0.12
		c-0.482,0-0.922-0.078-1.321-0.233s-0.779-0.396-1.14-0.722l0.422-0.499c0.315,0.287,0.634,0.5,0.955,0.641s0.691,0.211,1.11,0.211
		c0.407,0,0.733-0.095,0.977-0.284c0.244-0.189,0.366-0.439,0.366-0.75c0-0.144-0.023-0.271-0.069-0.384
		c-0.046-0.111-0.126-0.214-0.242-0.306c-0.115-0.092-0.274-0.175-0.479-0.25s-0.464-0.146-0.781-0.216
		c-0.345-0.074-0.646-0.161-0.901-0.259c-0.256-0.098-0.468-0.215-0.634-0.354c-0.167-0.138-0.291-0.298-0.371-0.482
		c-0.081-0.184-0.121-0.402-0.121-0.655c0-0.241,0.048-0.462,0.146-0.663s0.235-0.375,0.413-0.521
		c0.178-0.146,0.388-0.262,0.628-0.345c0.241-0.084,0.505-0.125,0.792-0.125c0.442,0,0.828,0.061,1.158,0.182
		c0.33,0.122,0.649,0.305,0.959,0.55l-0.396,0.524c-0.281-0.229-0.563-0.396-0.848-0.499s-0.581-0.154-0.891-0.154
		c-0.195,0-0.372,0.025-0.529,0.077c-0.158,0.052-0.293,0.121-0.405,0.207s-0.198,0.189-0.258,0.311
		c-0.06,0.12-0.09,0.25-0.09,0.388C18.098,119.128,18.121,119.257,18.167,119.372z"/>
	<path d="M27.281,122.262c-0.121,0.287-0.28,0.529-0.478,0.728c-0.198,0.198-0.424,0.35-0.68,0.456s-0.518,0.159-0.788,0.159
		c-0.207,0-0.396-0.025-0.568-0.077c-0.172-0.052-0.327-0.121-0.465-0.207s-0.263-0.187-0.375-0.301
		c-0.112-0.115-0.211-0.235-0.297-0.362v2.229h-0.663v-5.826h0.663v0.895c0.092-0.132,0.194-0.258,0.306-0.379
		c0.112-0.12,0.237-0.225,0.375-0.313s0.291-0.161,0.46-0.216c0.169-0.054,0.357-0.081,0.563-0.081c0.264,0,0.523,0.051,0.779,0.154
		s0.483,0.254,0.685,0.452c0.201,0.198,0.361,0.44,0.482,0.728s0.181,0.613,0.181,0.98S27.402,121.975,27.281,122.262z
		 M26.657,120.578c-0.083-0.211-0.197-0.393-0.34-0.543c-0.144-0.151-0.31-0.268-0.5-0.348c-0.189-0.079-0.39-0.119-0.603-0.119
		c-0.207,0-0.406,0.041-0.598,0.124c-0.192,0.083-0.364,0.198-0.516,0.347c-0.152,0.148-0.272,0.328-0.362,0.539
		c-0.089,0.212-0.133,0.445-0.133,0.702c0,0.258,0.044,0.493,0.133,0.707c0.089,0.214,0.209,0.396,0.362,0.544
		c0.152,0.148,0.324,0.264,0.516,0.347c0.192,0.083,0.392,0.124,0.598,0.124c0.212,0,0.415-0.038,0.607-0.115
		s0.358-0.188,0.499-0.334s0.252-0.326,0.336-0.54c0.083-0.214,0.125-0.455,0.125-0.724C26.782,121.026,26.74,120.79,26.657,120.578
		z"/>
	<path d="M32.871,122.18c-0.118,0.284-0.28,0.532-0.486,0.745c-0.207,0.212-0.453,0.38-0.74,0.503
		c-0.287,0.124-0.597,0.186-0.929,0.186c-0.333,0-0.64-0.062-0.921-0.186c-0.281-0.123-0.525-0.289-0.732-0.499
		c-0.207-0.209-0.367-0.454-0.482-0.735s-0.172-0.58-0.172-0.896s0.057-0.615,0.172-0.899s0.275-0.532,0.482-0.744
		c0.207-0.213,0.452-0.381,0.736-0.504c0.284-0.123,0.595-0.185,0.934-0.185c0.333,0,0.641,0.062,0.925,0.185
		s0.529,0.29,0.736,0.499c0.207,0.21,0.367,0.455,0.482,0.736s0.172,0.579,0.172,0.895C33.048,121.597,32.989,121.896,32.871,122.18
		z M32.243,120.615c-0.083-0.212-0.199-0.396-0.348-0.554c-0.149-0.157-0.324-0.282-0.525-0.373
		c-0.201-0.092-0.419-0.138-0.654-0.138c-0.241,0-0.462,0.044-0.663,0.133c-0.201,0.089-0.371,0.212-0.512,0.369
		s-0.251,0.341-0.332,0.55s-0.121,0.434-0.121,0.674s0.042,0.467,0.125,0.679c0.083,0.211,0.198,0.395,0.344,0.549
		s0.32,0.277,0.521,0.369c0.201,0.092,0.419,0.138,0.654,0.138c0.241,0,0.462-0.044,0.663-0.133s0.373-0.211,0.517-0.365
		c0.143-0.154,0.255-0.336,0.335-0.545c0.081-0.209,0.121-0.434,0.121-0.674C32.368,121.053,32.326,120.827,32.243,120.615z"/>
	<path d="M34.906,123.51h-0.663v-4.449h0.663v0.774c0.149-0.241,0.344-0.446,0.585-0.615c0.241-0.17,0.554-0.254,0.938-0.254
		c0.27,0,0.509,0.043,0.719,0.129s0.387,0.208,0.534,0.365c0.146,0.158,0.258,0.346,0.335,0.564
		c0.078,0.218,0.116,0.459,0.116,0.723v2.763h-0.663v-2.6c0-0.413-0.106-0.74-0.318-0.98c-0.212-0.241-0.517-0.361-0.913-0.361
		c-0.189,0-0.366,0.032-0.529,0.099c-0.164,0.065-0.306,0.16-0.426,0.284c-0.121,0.123-0.214,0.271-0.28,0.443
		c-0.066,0.172-0.099,0.361-0.099,0.567V123.51z"/>
	<path d="M42.476,122.825c-0.083,0.164-0.195,0.303-0.336,0.418c-0.141,0.114-0.307,0.202-0.499,0.263
		c-0.192,0.06-0.4,0.09-0.624,0.09c-0.321,0-0.646-0.059-0.973-0.177c-0.327-0.117-0.617-0.276-0.869-0.478l0.335-0.473
		c0.241,0.184,0.492,0.324,0.753,0.421c0.261,0.098,0.523,0.146,0.788,0.146c0.27,0,0.49-0.063,0.663-0.189
		c0.172-0.126,0.258-0.298,0.258-0.516v-0.018c0-0.109-0.03-0.204-0.091-0.284c-0.06-0.08-0.142-0.15-0.245-0.211
		c-0.103-0.06-0.222-0.113-0.357-0.159c-0.135-0.046-0.274-0.089-0.417-0.129c-0.172-0.052-0.346-0.107-0.521-0.168
		c-0.175-0.061-0.333-0.136-0.473-0.228s-0.255-0.207-0.344-0.345c-0.089-0.138-0.133-0.31-0.133-0.517v-0.017
		c0-0.189,0.037-0.363,0.112-0.521c0.074-0.157,0.179-0.292,0.314-0.404c0.135-0.111,0.295-0.198,0.482-0.258
		c0.187-0.061,0.389-0.091,0.607-0.091c0.275,0,0.554,0.045,0.835,0.134c0.281,0.089,0.536,0.208,0.766,0.357l-0.301,0.499
		c-0.207-0.132-0.423-0.237-0.649-0.314c-0.227-0.077-0.449-0.116-0.667-0.116c-0.264,0-0.474,0.062-0.628,0.186
		c-0.155,0.123-0.232,0.276-0.232,0.46v0.018c0,0.103,0.031,0.193,0.095,0.271c0.063,0.078,0.147,0.146,0.254,0.202
		c0.106,0.058,0.228,0.109,0.366,0.155s0.281,0.092,0.43,0.138c0.172,0.052,0.343,0.109,0.512,0.172
		c0.169,0.063,0.323,0.144,0.46,0.241s0.248,0.215,0.332,0.353c0.083,0.138,0.125,0.308,0.125,0.508v0.018
		C42.601,122.475,42.559,122.662,42.476,122.825z"/>
	<path d="M48.019,122.18c-0.118,0.284-0.28,0.532-0.486,0.745c-0.207,0.212-0.453,0.38-0.74,0.503
		c-0.287,0.124-0.597,0.186-0.929,0.186c-0.333,0-0.64-0.062-0.921-0.186c-0.281-0.123-0.525-0.289-0.732-0.499
		c-0.207-0.209-0.367-0.454-0.482-0.735s-0.172-0.58-0.172-0.896s0.057-0.615,0.172-0.899s0.275-0.532,0.482-0.744
		c0.207-0.213,0.452-0.381,0.736-0.504c0.284-0.123,0.595-0.185,0.934-0.185c0.333,0,0.641,0.062,0.925,0.185
		s0.529,0.29,0.736,0.499c0.207,0.21,0.367,0.455,0.482,0.736s0.172,0.579,0.172,0.895C48.195,121.597,48.136,121.896,48.019,122.18
		z M47.39,120.615c-0.083-0.212-0.199-0.396-0.348-0.554c-0.149-0.157-0.324-0.282-0.525-0.373
		c-0.201-0.092-0.419-0.138-0.654-0.138c-0.241,0-0.462,0.044-0.663,0.133c-0.201,0.089-0.371,0.212-0.512,0.369
		s-0.251,0.341-0.332,0.55s-0.121,0.434-0.121,0.674s0.042,0.467,0.125,0.679c0.083,0.211,0.198,0.395,0.344,0.549
		s0.32,0.277,0.521,0.369c0.201,0.092,0.419,0.138,0.654,0.138c0.241,0,0.462-0.044,0.663-0.133s0.373-0.211,0.517-0.365
		c0.143-0.154,0.255-0.336,0.335-0.545c0.081-0.209,0.121-0.434,0.121-0.674C47.515,121.053,47.474,120.827,47.39,120.615z"/>
	<path d="M50.054,123.51h-0.663v-4.449h0.663v1.161c0.081-0.184,0.181-0.353,0.301-0.508c0.121-0.154,0.258-0.288,0.413-0.399
		c0.155-0.112,0.324-0.197,0.508-0.254c0.184-0.058,0.381-0.084,0.594-0.078v0.715h-0.051c-0.241,0-0.469,0.043-0.685,0.129
		c-0.215,0.086-0.403,0.215-0.563,0.388c-0.161,0.172-0.287,0.386-0.379,0.641c-0.092,0.256-0.138,0.55-0.138,0.882V123.51z"/>
	<path d="M53.273,122.172c0.092,0.187,0.209,0.344,0.353,0.473c0.143,0.129,0.304,0.227,0.482,0.293
		c0.178,0.066,0.364,0.099,0.559,0.099c0.31,0,0.575-0.057,0.796-0.172c0.221-0.114,0.423-0.267,0.606-0.456l0.414,0.37
		c-0.224,0.252-0.479,0.455-0.766,0.606c-0.287,0.152-0.643,0.229-1.067,0.229c-0.304,0-0.591-0.057-0.861-0.168
		c-0.27-0.112-0.505-0.27-0.708-0.474c-0.202-0.203-0.363-0.448-0.482-0.735s-0.179-0.603-0.179-0.947
		c0-0.321,0.053-0.624,0.159-0.908c0.106-0.283,0.254-0.53,0.443-0.74c0.189-0.209,0.415-0.374,0.675-0.494
		c0.261-0.121,0.547-0.181,0.856-0.181c0.327,0,0.62,0.062,0.878,0.185s0.476,0.291,0.654,0.504
		c0.178,0.212,0.313,0.462,0.404,0.748c0.092,0.287,0.138,0.595,0.138,0.921c0,0.029,0,0.061,0,0.095
		c0,0.035-0.003,0.072-0.008,0.112h-3.521C53.124,121.771,53.181,121.985,53.273,122.172z M55.95,121.04
		c-0.018-0.201-0.059-0.394-0.125-0.577c-0.065-0.184-0.157-0.344-0.273-0.481c-0.117-0.138-0.26-0.249-0.428-0.332
		c-0.168-0.083-0.364-0.125-0.586-0.125c-0.194,0-0.374,0.039-0.539,0.116c-0.166,0.078-0.311,0.185-0.437,0.319
		s-0.228,0.294-0.308,0.478c-0.08,0.184-0.131,0.384-0.154,0.603H55.95z"/>
	<path d="M61.363,123.51v-0.896c-0.092,0.133-0.194,0.259-0.306,0.379c-0.112,0.121-0.237,0.227-0.375,0.318
		s-0.291,0.164-0.46,0.216c-0.169,0.052-0.357,0.077-0.563,0.077c-0.27,0-0.531-0.052-0.783-0.155
		c-0.252-0.103-0.479-0.254-0.68-0.451c-0.201-0.198-0.361-0.44-0.482-0.728s-0.181-0.614-0.181-0.981s0.06-0.694,0.181-0.981
		c0.121-0.286,0.281-0.529,0.482-0.727c0.201-0.198,0.428-0.351,0.68-0.456c0.252-0.106,0.513-0.159,0.783-0.159
		c0.207,0,0.396,0.025,0.568,0.077c0.172,0.052,0.327,0.12,0.465,0.206c0.138,0.087,0.263,0.187,0.375,0.302
		s0.211,0.235,0.297,0.361v-2.686h0.663v6.283H61.363z M61.256,120.578c-0.089-0.211-0.21-0.391-0.362-0.539
		s-0.324-0.264-0.516-0.347c-0.192-0.083-0.392-0.124-0.598-0.124c-0.218,0-0.422,0.038-0.611,0.115s-0.354,0.188-0.495,0.334
		c-0.141,0.146-0.253,0.325-0.336,0.539c-0.083,0.215-0.125,0.456-0.125,0.724c0,0.263,0.042,0.5,0.125,0.711
		c0.083,0.212,0.197,0.393,0.34,0.544c0.144,0.151,0.31,0.268,0.5,0.347c0.189,0.08,0.39,0.12,0.603,0.12
		c0.207,0,0.406-0.041,0.598-0.124c0.192-0.083,0.364-0.198,0.516-0.347s0.272-0.33,0.362-0.544
		c0.089-0.214,0.133-0.449,0.133-0.707C61.389,121.023,61.345,120.79,61.256,120.578z"/>
	<path d="M70.4,122.262c-0.121,0.287-0.28,0.529-0.478,0.728c-0.198,0.198-0.424,0.35-0.68,0.456s-0.518,0.159-0.788,0.159
		c-0.207,0-0.396-0.025-0.568-0.077c-0.172-0.052-0.327-0.121-0.465-0.207s-0.263-0.187-0.375-0.301
		c-0.112-0.115-0.211-0.235-0.297-0.362v0.853h-0.663v-6.283h0.663v2.729c0.092-0.132,0.194-0.258,0.306-0.379
		c0.112-0.12,0.237-0.225,0.375-0.313s0.291-0.161,0.46-0.216c0.169-0.054,0.357-0.081,0.563-0.081c0.264,0,0.523,0.051,0.779,0.154
		s0.483,0.254,0.685,0.452c0.201,0.198,0.361,0.44,0.482,0.728s0.181,0.613,0.181,0.98S70.521,121.975,70.4,122.262z
		 M69.776,120.578c-0.083-0.211-0.197-0.393-0.34-0.543c-0.144-0.151-0.31-0.268-0.5-0.348c-0.189-0.079-0.39-0.119-0.603-0.119
		c-0.207,0-0.406,0.041-0.598,0.124c-0.192,0.083-0.364,0.198-0.516,0.347c-0.152,0.148-0.272,0.328-0.362,0.539
		c-0.089,0.212-0.133,0.445-0.133,0.702c0,0.258,0.044,0.493,0.133,0.707c0.089,0.214,0.209,0.396,0.362,0.544
		c0.152,0.148,0.324,0.264,0.516,0.347c0.192,0.083,0.392,0.124,0.598,0.124c0.212,0,0.415-0.038,0.607-0.115
		s0.358-0.188,0.499-0.334s0.252-0.326,0.336-0.54c0.083-0.214,0.125-0.455,0.125-0.724
		C69.901,121.026,69.859,120.79,69.776,120.578z"/>
	<path d="M73.765,123.656c-0.189,0.459-0.4,0.783-0.633,0.973s-0.515,0.284-0.848,0.284c-0.184,0-0.35-0.02-0.499-0.057
		c-0.149-0.037-0.298-0.093-0.448-0.168l0.224-0.524c0.109,0.057,0.217,0.099,0.323,0.125c0.106,0.025,0.231,0.038,0.375,0.038
		c0.201,0,0.37-0.06,0.508-0.181c0.138-0.12,0.272-0.339,0.405-0.654l-2.023-4.432h0.732l1.618,3.709l1.429-3.709h0.706
		L73.765,123.656z"/>
	<path d="M82.269,121.857h-0.035l-2.195-3.219v4.871h-0.663v-6.024h0.688l2.195,3.287l2.195-3.287h0.688v6.024h-0.68v-4.88
		L82.269,121.857z"/>
	<path d="M86.752,118.088v-0.731h0.757v0.731H86.752z M86.795,123.51v-4.449h0.663v4.449H86.795z"/>
	<path d="M89.661,123.51h-0.663v-4.449h0.663v0.774c0.149-0.241,0.344-0.446,0.585-0.615c0.241-0.17,0.554-0.254,0.938-0.254
		c0.27,0,0.509,0.043,0.719,0.129s0.387,0.208,0.534,0.365c0.146,0.158,0.258,0.346,0.335,0.564
		c0.078,0.218,0.116,0.459,0.116,0.723v2.763h-0.663v-2.6c0-0.413-0.106-0.74-0.318-0.98c-0.212-0.241-0.517-0.361-0.913-0.361
		c-0.189,0-0.366,0.032-0.529,0.099c-0.164,0.065-0.306,0.16-0.426,0.284c-0.121,0.123-0.214,0.271-0.28,0.443
		c-0.066,0.172-0.099,0.361-0.099,0.567V123.51z"/>
	<path d="M94.317,118.088v-0.731h0.757v0.731H94.317z M94.36,123.51v-4.449h0.663v4.449H94.36z"/>
	<path d="M99.495,122.825c-0.083,0.164-0.195,0.303-0.336,0.418c-0.141,0.114-0.307,0.202-0.499,0.263
		c-0.192,0.06-0.4,0.09-0.624,0.09c-0.321,0-0.646-0.059-0.973-0.177c-0.327-0.117-0.617-0.276-0.869-0.478l0.335-0.473
		c0.241,0.184,0.492,0.324,0.753,0.421c0.261,0.098,0.523,0.146,0.788,0.146c0.27,0,0.49-0.063,0.663-0.189
		c0.172-0.126,0.258-0.298,0.258-0.516v-0.018c0-0.109-0.03-0.204-0.091-0.284c-0.06-0.08-0.142-0.15-0.245-0.211
		c-0.103-0.06-0.222-0.113-0.357-0.159c-0.135-0.046-0.274-0.089-0.417-0.129c-0.172-0.052-0.346-0.107-0.521-0.168
		c-0.175-0.061-0.333-0.136-0.473-0.228s-0.255-0.207-0.344-0.345c-0.089-0.138-0.133-0.31-0.133-0.517v-0.017
		c0-0.189,0.037-0.363,0.112-0.521c0.074-0.157,0.179-0.292,0.314-0.404c0.135-0.111,0.295-0.198,0.482-0.258
		c0.187-0.061,0.389-0.091,0.607-0.091c0.275,0,0.554,0.045,0.835,0.134c0.281,0.089,0.536,0.208,0.766,0.357l-0.301,0.499
		c-0.207-0.132-0.423-0.237-0.649-0.314c-0.227-0.077-0.449-0.116-0.667-0.116c-0.264,0-0.474,0.062-0.628,0.186
		c-0.155,0.123-0.232,0.276-0.232,0.46v0.018c0,0.103,0.031,0.193,0.095,0.271c0.063,0.078,0.147,0.146,0.254,0.202
		c0.106,0.058,0.228,0.109,0.366,0.155s0.281,0.092,0.43,0.138c0.172,0.052,0.343,0.109,0.512,0.172
		c0.169,0.063,0.323,0.144,0.46,0.241s0.248,0.215,0.332,0.353c0.083,0.138,0.125,0.308,0.125,0.508v0.018
		C99.619,122.475,99.578,122.662,99.495,122.825z"/>
	<path d="M101.667,122.244c0,0.275,0.069,0.468,0.207,0.577s0.318,0.163,0.542,0.163c0.114,0,0.222-0.011,0.323-0.034
		c0.1-0.022,0.208-0.063,0.323-0.12v0.567c-0.115,0.063-0.237,0.111-0.366,0.143c-0.129,0.031-0.274,0.047-0.435,0.047
		c-0.178,0-0.344-0.022-0.499-0.068s-0.289-0.119-0.4-0.22s-0.199-0.23-0.262-0.392c-0.063-0.16-0.095-0.353-0.095-0.576v-2.686
		h-0.62v-0.585h0.62v-1.343h0.663v1.343h1.412v0.585h-1.412V122.244z"/>
	<path d="M104.912,123.51h-0.663v-4.449h0.663v1.161c0.081-0.184,0.181-0.353,0.301-0.508c0.121-0.154,0.258-0.288,0.413-0.399
		c0.155-0.112,0.324-0.197,0.508-0.254c0.184-0.058,0.381-0.084,0.594-0.078v0.715h-0.051c-0.241,0-0.469,0.043-0.685,0.129
		c-0.215,0.086-0.403,0.215-0.563,0.388c-0.161,0.172-0.287,0.386-0.379,0.641c-0.092,0.256-0.138,0.55-0.138,0.882V123.51z"/>
	<path d="M109.904,123.656c-0.189,0.459-0.4,0.783-0.633,0.973s-0.515,0.284-0.848,0.284c-0.184,0-0.35-0.02-0.499-0.057
		c-0.149-0.037-0.298-0.093-0.448-0.168l0.224-0.524c0.109,0.057,0.217,0.099,0.323,0.125c0.106,0.025,0.231,0.038,0.375,0.038
		c0.201,0,0.37-0.06,0.508-0.181c0.138-0.12,0.272-0.339,0.405-0.654l-2.023-4.432h0.732l1.618,3.709l1.429-3.709h0.706
		L109.904,123.656z"/>
	<path d="M119.59,122.18c-0.118,0.284-0.28,0.532-0.486,0.745c-0.207,0.212-0.453,0.38-0.74,0.503
		c-0.287,0.124-0.597,0.186-0.929,0.186c-0.333,0-0.64-0.062-0.921-0.186c-0.281-0.123-0.525-0.289-0.732-0.499
		c-0.207-0.209-0.367-0.454-0.482-0.735s-0.172-0.58-0.172-0.896s0.057-0.615,0.172-0.899s0.275-0.532,0.482-0.744
		c0.207-0.213,0.452-0.381,0.736-0.504c0.284-0.123,0.595-0.185,0.934-0.185c0.333,0,0.641,0.062,0.925,0.185
		s0.529,0.29,0.736,0.499c0.207,0.21,0.367,0.455,0.482,0.736s0.172,0.579,0.172,0.895
		C119.767,121.597,119.708,121.896,119.59,122.18z M118.962,120.615c-0.083-0.212-0.199-0.396-0.348-0.554
		c-0.149-0.157-0.324-0.282-0.525-0.373c-0.201-0.092-0.419-0.138-0.654-0.138c-0.241,0-0.462,0.044-0.663,0.133
		c-0.201,0.089-0.371,0.212-0.512,0.369s-0.251,0.341-0.332,0.55s-0.121,0.434-0.121,0.674s0.042,0.467,0.125,0.679
		c0.083,0.211,0.198,0.395,0.344,0.549s0.32,0.277,0.521,0.369c0.201,0.092,0.419,0.138,0.654,0.138
		c0.241,0,0.462-0.044,0.663-0.133s0.373-0.211,0.517-0.365c0.143-0.154,0.255-0.336,0.335-0.545
		c0.081-0.209,0.121-0.434,0.121-0.674C119.087,121.053,119.045,120.827,118.962,120.615z"/>
	<path d="M123.278,119.077v0.568h-1.403v3.864h-0.663v-3.864h-0.611v-0.577h0.611v-0.387c0-0.488,0.116-0.858,0.349-1.11
		c0.232-0.253,0.563-0.379,0.994-0.379c0.155,0,0.288,0.009,0.4,0.026c0.112,0.017,0.223,0.046,0.332,0.086v0.576
		c-0.121-0.034-0.229-0.062-0.327-0.082c-0.098-0.02-0.204-0.029-0.318-0.029c-0.517,0-0.774,0.315-0.774,0.946v0.361H123.278z"/>
	<path d="M131.494,122.989c-0.169,0.129-0.352,0.239-0.546,0.331c-0.195,0.092-0.405,0.164-0.628,0.215
		c-0.224,0.052-0.473,0.078-0.749,0.078c-0.437,0-0.838-0.081-1.205-0.241s-0.686-0.38-0.956-0.658s-0.48-0.607-0.632-0.985
		c-0.152-0.379-0.228-0.786-0.228-1.223c0-0.43,0.076-0.835,0.228-1.213c0.152-0.379,0.363-0.711,0.632-0.994
		c0.27-0.284,0.591-0.508,0.964-0.672c0.373-0.163,0.78-0.245,1.222-0.245c0.275,0,0.524,0.023,0.745,0.068
		c0.221,0.047,0.426,0.111,0.615,0.194c0.189,0.083,0.364,0.184,0.525,0.301c0.16,0.118,0.315,0.248,0.464,0.392l-0.464,0.499
		c-0.258-0.24-0.535-0.438-0.831-0.594c-0.296-0.154-0.65-0.232-1.063-0.232c-0.333,0-0.641,0.063-0.925,0.189
		c-0.284,0.127-0.531,0.302-0.74,0.525s-0.373,0.486-0.491,0.787c-0.118,0.302-0.176,0.627-0.176,0.978
		c0,0.35,0.059,0.677,0.176,0.98c0.118,0.305,0.281,0.568,0.491,0.792s0.456,0.4,0.74,0.529s0.592,0.193,0.925,0.193
		c0.413,0,0.769-0.075,1.067-0.228s0.591-0.366,0.878-0.642l0.448,0.439C131.825,122.715,131.663,122.86,131.494,122.989z"/>
	<path d="M137.165,122.18c-0.118,0.284-0.28,0.532-0.486,0.745c-0.207,0.212-0.453,0.38-0.74,0.503
		c-0.287,0.124-0.597,0.186-0.929,0.186c-0.333,0-0.64-0.062-0.921-0.186c-0.281-0.123-0.525-0.289-0.732-0.499
		c-0.207-0.209-0.367-0.454-0.482-0.735s-0.172-0.58-0.172-0.896s0.057-0.615,0.172-0.899s0.275-0.532,0.482-0.744
		c0.207-0.213,0.452-0.381,0.736-0.504c0.284-0.123,0.595-0.185,0.934-0.185c0.333,0,0.641,0.062,0.925,0.185
		s0.529,0.29,0.736,0.499c0.207,0.21,0.367,0.455,0.482,0.736s0.172,0.579,0.172,0.895
		C137.342,121.597,137.283,121.896,137.165,122.18z M136.537,120.615c-0.083-0.212-0.199-0.396-0.348-0.554
		c-0.149-0.157-0.324-0.282-0.525-0.373c-0.201-0.092-0.419-0.138-0.654-0.138c-0.241,0-0.462,0.044-0.663,0.133
		c-0.201,0.089-0.371,0.212-0.512,0.369s-0.251,0.341-0.332,0.55s-0.121,0.434-0.121,0.674s0.042,0.467,0.125,0.679
		c0.083,0.211,0.198,0.395,0.344,0.549s0.32,0.277,0.521,0.369c0.201,0.092,0.419,0.138,0.654,0.138
		c0.241,0,0.462-0.044,0.663-0.133s0.373-0.211,0.517-0.365c0.143-0.154,0.255-0.336,0.335-0.545
		c0.081-0.209,0.121-0.434,0.121-0.674C136.662,121.053,136.62,120.827,136.537,120.615z"/>
	<path d="M142.338,119.508c0.1-0.109,0.214-0.204,0.34-0.284c0.126-0.08,0.268-0.144,0.426-0.189
		c0.158-0.046,0.334-0.068,0.529-0.068c0.516,0,0.921,0.159,1.213,0.478s0.439,0.756,0.439,1.313v2.754h-0.663v-2.6
		c0-0.43-0.102-0.762-0.306-0.994c-0.204-0.231-0.486-0.348-0.848-0.348c-0.167,0-0.324,0.029-0.474,0.09
		c-0.149,0.061-0.279,0.149-0.392,0.267c-0.112,0.118-0.201,0.263-0.267,0.435c-0.066,0.173-0.099,0.367-0.099,0.586v2.564h-0.654
		v-2.616c0-0.419-0.102-0.745-0.306-0.978c-0.204-0.231-0.483-0.348-0.839-0.348c-0.178,0-0.341,0.034-0.49,0.103
		c-0.149,0.069-0.28,0.167-0.392,0.293c-0.112,0.126-0.2,0.274-0.263,0.443s-0.095,0.357-0.095,0.563v2.539h-0.663v-4.449h0.663
		v0.748c0.075-0.108,0.156-0.215,0.245-0.318c0.089-0.104,0.191-0.193,0.306-0.271c0.115-0.078,0.244-0.14,0.387-0.186
		c0.144-0.046,0.31-0.068,0.5-0.068c0.361,0,0.66,0.084,0.895,0.254c0.235,0.169,0.413,0.38,0.534,0.632
		C142.147,119.731,142.237,119.617,142.338,119.508z"/>
	<path d="M150.522,119.508c0.1-0.109,0.214-0.204,0.34-0.284c0.126-0.08,0.268-0.144,0.426-0.189
		c0.158-0.046,0.334-0.068,0.529-0.068c0.516,0,0.921,0.159,1.213,0.478s0.439,0.756,0.439,1.313v2.754h-0.663v-2.6
		c0-0.43-0.102-0.762-0.306-0.994c-0.204-0.231-0.486-0.348-0.848-0.348c-0.167,0-0.324,0.029-0.474,0.09
		c-0.149,0.061-0.279,0.149-0.392,0.267c-0.112,0.118-0.201,0.263-0.267,0.435c-0.066,0.173-0.099,0.367-0.099,0.586v2.564h-0.654
		v-2.616c0-0.419-0.102-0.745-0.306-0.978c-0.204-0.231-0.483-0.348-0.839-0.348c-0.178,0-0.341,0.034-0.49,0.103
		c-0.149,0.069-0.28,0.167-0.392,0.293c-0.112,0.126-0.2,0.274-0.263,0.443s-0.095,0.357-0.095,0.563v2.539h-0.663v-4.449h0.663
		v0.748c0.075-0.108,0.156-0.215,0.245-0.318c0.089-0.104,0.191-0.193,0.306-0.271c0.115-0.078,0.244-0.14,0.387-0.186
		c0.144-0.046,0.31-0.068,0.5-0.068c0.361,0,0.66,0.084,0.895,0.254c0.235,0.169,0.413,0.38,0.534,0.632
		C150.332,119.731,150.422,119.617,150.522,119.508z"/>
	<path d="M155.484,122.172c0.092,0.187,0.209,0.344,0.353,0.473c0.143,0.129,0.304,0.227,0.482,0.293
		c0.178,0.066,0.364,0.099,0.559,0.099c0.31,0,0.575-0.057,0.796-0.172c0.221-0.114,0.423-0.267,0.606-0.456l0.414,0.37
		c-0.224,0.252-0.479,0.455-0.766,0.606c-0.287,0.152-0.643,0.229-1.067,0.229c-0.304,0-0.591-0.057-0.861-0.168
		c-0.27-0.112-0.505-0.27-0.708-0.474c-0.202-0.203-0.363-0.448-0.482-0.735s-0.179-0.603-0.179-0.947
		c0-0.321,0.053-0.624,0.159-0.908c0.106-0.283,0.254-0.53,0.443-0.74c0.189-0.209,0.415-0.374,0.675-0.494
		c0.261-0.121,0.547-0.181,0.856-0.181c0.327,0,0.62,0.062,0.878,0.185s0.476,0.291,0.654,0.504
		c0.178,0.212,0.313,0.462,0.404,0.748c0.092,0.287,0.138,0.595,0.138,0.921c0,0.029,0,0.061,0,0.095
		c0,0.035-0.003,0.072-0.008,0.112h-3.521C155.335,121.771,155.393,121.985,155.484,122.172z M158.161,121.04
		c-0.018-0.201-0.059-0.394-0.125-0.577c-0.065-0.184-0.157-0.344-0.273-0.481c-0.117-0.138-0.26-0.249-0.428-0.332
		c-0.168-0.083-0.364-0.125-0.586-0.125c-0.194,0-0.374,0.039-0.539,0.116c-0.166,0.078-0.311,0.185-0.437,0.319
		s-0.228,0.294-0.308,0.478c-0.08,0.184-0.131,0.384-0.154,0.603H158.161z"/>
	<path d="M160.666,123.51h-0.663v-4.449h0.663v1.161c0.081-0.184,0.181-0.353,0.301-0.508c0.121-0.154,0.258-0.288,0.413-0.399
		c0.155-0.112,0.324-0.197,0.508-0.254c0.184-0.058,0.381-0.084,0.594-0.078v0.715h-0.051c-0.241,0-0.469,0.043-0.685,0.129
		c-0.215,0.086-0.403,0.215-0.563,0.388c-0.161,0.172-0.287,0.386-0.379,0.641c-0.092,0.256-0.138,0.55-0.138,0.882V123.51z"/>
	<path d="M166.367,123.368c-0.284,0.163-0.635,0.245-1.054,0.245c-0.327,0-0.63-0.062-0.908-0.186
		c-0.278-0.123-0.519-0.289-0.723-0.499c-0.204-0.209-0.363-0.454-0.478-0.735s-0.172-0.58-0.172-0.896s0.057-0.615,0.172-0.899
		s0.274-0.532,0.478-0.744c0.204-0.213,0.444-0.381,0.723-0.504s0.581-0.185,0.908-0.185c0.212,0,0.404,0.02,0.577,0.06
		c0.172,0.04,0.33,0.097,0.473,0.168c0.144,0.072,0.275,0.156,0.396,0.254s0.232,0.201,0.336,0.31l-0.439,0.465
		c-0.178-0.184-0.372-0.341-0.581-0.473s-0.466-0.198-0.771-0.198c-0.224,0-0.433,0.044-0.628,0.133
		c-0.195,0.089-0.364,0.212-0.507,0.369c-0.144,0.157-0.255,0.341-0.336,0.55s-0.121,0.434-0.121,0.674s0.042,0.467,0.125,0.679
		c0.083,0.211,0.198,0.396,0.344,0.554s0.318,0.28,0.517,0.369c0.198,0.089,0.414,0.133,0.649,0.133
		c0.287,0,0.541-0.063,0.762-0.189c0.221-0.126,0.42-0.284,0.598-0.474l0.422,0.396
		C166.905,122.997,166.651,123.206,166.367,123.368z"/>
	<path d="M168.67,122.172c0.092,0.187,0.209,0.344,0.353,0.473c0.143,0.129,0.304,0.227,0.482,0.293
		c0.178,0.066,0.364,0.099,0.559,0.099c0.31,0,0.575-0.057,0.796-0.172c0.221-0.114,0.423-0.267,0.606-0.456l0.414,0.37
		c-0.224,0.252-0.479,0.455-0.766,0.606c-0.287,0.152-0.643,0.229-1.067,0.229c-0.304,0-0.591-0.057-0.861-0.168
		c-0.27-0.112-0.505-0.27-0.708-0.474c-0.202-0.203-0.363-0.448-0.482-0.735s-0.179-0.603-0.179-0.947
		c0-0.321,0.053-0.624,0.159-0.908c0.106-0.283,0.254-0.53,0.443-0.74c0.189-0.209,0.415-0.374,0.675-0.494
		c0.261-0.121,0.547-0.181,0.856-0.181c0.327,0,0.62,0.062,0.878,0.185s0.476,0.291,0.654,0.504
		c0.178,0.212,0.313,0.462,0.404,0.748c0.092,0.287,0.138,0.595,0.138,0.921c0,0.029,0,0.061,0,0.095
		c0,0.035-0.003,0.072-0.008,0.112h-3.521C168.521,121.771,168.578,121.985,168.67,122.172z M171.347,121.04
		c-0.018-0.201-0.059-0.394-0.125-0.577c-0.065-0.184-0.157-0.344-0.273-0.481c-0.117-0.138-0.26-0.249-0.428-0.332
		c-0.168-0.083-0.364-0.125-0.586-0.125c-0.194,0-0.374,0.039-0.539,0.116c-0.166,0.078-0.311,0.185-0.437,0.319
		s-0.228,0.294-0.308,0.478c-0.08,0.184-0.131,0.384-0.154,0.603H171.347z"/>
	<path d="M180.229,123.63l-0.947-0.973c-0.276,0.299-0.574,0.53-0.896,0.693s-0.68,0.245-1.076,0.245c-0.27,0-0.521-0.04-0.753-0.12
		s-0.434-0.195-0.603-0.345c-0.169-0.149-0.301-0.328-0.396-0.538c-0.095-0.209-0.142-0.439-0.142-0.692
		c0-0.407,0.126-0.755,0.379-1.041c0.252-0.287,0.611-0.522,1.076-0.706c-0.207-0.241-0.358-0.464-0.456-0.667
		c-0.098-0.204-0.146-0.426-0.146-0.667c0-0.201,0.039-0.389,0.116-0.563c0.078-0.176,0.185-0.327,0.323-0.457
		c0.138-0.129,0.304-0.23,0.5-0.305c0.195-0.075,0.413-0.112,0.654-0.112c0.212,0,0.407,0.036,0.585,0.107
		c0.178,0.072,0.331,0.169,0.46,0.293c0.129,0.123,0.231,0.269,0.305,0.435c0.075,0.166,0.112,0.344,0.112,0.533
		c0,0.396-0.126,0.719-0.379,0.969c-0.252,0.249-0.6,0.451-1.042,0.606l1.377,1.403c0.132-0.195,0.258-0.405,0.378-0.629
		s0.235-0.462,0.344-0.714l0.561,0.258c-0.133,0.287-0.27,0.557-0.41,0.81c-0.14,0.252-0.293,0.487-0.459,0.705l1.049,1.076
		L180.229,123.63z M177.25,120.575c-0.402,0.149-0.694,0.338-0.878,0.567s-0.275,0.474-0.275,0.731c0,0.167,0.03,0.319,0.09,0.457
		c0.06,0.138,0.146,0.258,0.258,0.361c0.112,0.103,0.245,0.184,0.4,0.241c0.155,0.057,0.324,0.086,0.508,0.086
		c0.287,0,0.555-0.07,0.805-0.211s0.483-0.332,0.702-0.572L177.25,120.575z M178.447,118.178c-0.161-0.157-0.365-0.236-0.611-0.236
		c-0.275,0-0.496,0.083-0.663,0.249c-0.167,0.167-0.25,0.376-0.25,0.629c0,0.092,0.01,0.178,0.03,0.258
		c0.02,0.081,0.053,0.164,0.099,0.25s0.108,0.179,0.185,0.279c0.078,0.101,0.173,0.211,0.289,0.331
		c0.384-0.132,0.674-0.289,0.869-0.473c0.195-0.184,0.292-0.41,0.292-0.68C178.688,118.538,178.607,118.336,178.447,118.178z"/>
	<path d="M185.194,117.485v6.024h-0.68v-6.024H185.194z"/>
	<path d="M187.51,123.51h-0.663v-4.449h0.663v0.774c0.148-0.241,0.344-0.446,0.585-0.615c0.241-0.17,0.554-0.254,0.938-0.254
		c0.27,0,0.509,0.043,0.718,0.129c0.21,0.086,0.388,0.208,0.534,0.365c0.146,0.158,0.258,0.346,0.336,0.564
		c0.077,0.218,0.116,0.459,0.116,0.723v2.763h-0.663v-2.6c0-0.413-0.106-0.74-0.318-0.98c-0.213-0.241-0.517-0.361-0.912-0.361
		c-0.189,0-0.366,0.032-0.529,0.099c-0.164,0.065-0.306,0.16-0.427,0.284c-0.12,0.123-0.214,0.271-0.279,0.443
		c-0.066,0.172-0.099,0.361-0.099,0.567V123.51z"/>
	<path d="M195.72,123.51v-0.896c-0.092,0.133-0.193,0.259-0.305,0.379c-0.112,0.121-0.237,0.227-0.375,0.318
		s-0.291,0.164-0.46,0.216c-0.17,0.052-0.357,0.077-0.564,0.077c-0.27,0-0.53-0.052-0.783-0.155
		c-0.252-0.103-0.479-0.254-0.68-0.451c-0.201-0.198-0.361-0.44-0.481-0.728c-0.121-0.287-0.181-0.614-0.181-0.981
		s0.06-0.694,0.181-0.981c0.12-0.286,0.28-0.529,0.481-0.727c0.201-0.198,0.428-0.351,0.68-0.456
		c0.253-0.106,0.514-0.159,0.783-0.159c0.207,0,0.396,0.025,0.568,0.077s0.327,0.12,0.465,0.206
		c0.138,0.087,0.263,0.187,0.374,0.302c0.112,0.115,0.211,0.235,0.297,0.361v-2.686h0.663v6.283H195.72z M195.612,120.578
		c-0.089-0.211-0.209-0.391-0.361-0.539s-0.324-0.264-0.517-0.347s-0.392-0.124-0.598-0.124c-0.219,0-0.422,0.038-0.611,0.115
		s-0.354,0.188-0.495,0.334s-0.252,0.325-0.335,0.539c-0.084,0.215-0.125,0.456-0.125,0.724c0,0.263,0.041,0.5,0.125,0.711
		c0.083,0.212,0.196,0.393,0.34,0.544s0.31,0.268,0.499,0.347c0.189,0.08,0.39,0.12,0.603,0.12c0.206,0,0.405-0.041,0.598-0.124
		s0.364-0.198,0.517-0.347s0.272-0.33,0.361-0.544s0.134-0.449,0.134-0.707C195.746,121.023,195.701,120.79,195.612,120.578z"/>
	<path d="M201.021,119.061h0.654v4.449h-0.654v-0.774c-0.148,0.241-0.344,0.446-0.585,0.615s-0.554,0.254-0.938,0.254
		c-0.27,0-0.509-0.043-0.718-0.129c-0.21-0.086-0.388-0.208-0.534-0.366c-0.146-0.157-0.258-0.346-0.336-0.563
		c-0.077-0.218-0.116-0.459-0.116-0.723v-2.763h0.663v2.599c0,0.413,0.106,0.74,0.318,0.981s0.517,0.361,0.912,0.361
		c0.189,0,0.366-0.033,0.529-0.099c0.164-0.066,0.305-0.161,0.422-0.284c0.118-0.123,0.211-0.271,0.28-0.443
		c0.068-0.172,0.103-0.361,0.103-0.568V119.061z"/>
	<path d="M206.096,122.825c-0.083,0.164-0.195,0.303-0.336,0.418c-0.141,0.114-0.307,0.202-0.499,0.263
		c-0.192,0.06-0.4,0.09-0.624,0.09c-0.321,0-0.646-0.059-0.973-0.177c-0.327-0.117-0.617-0.276-0.869-0.478l0.336-0.473
		c0.24,0.184,0.491,0.324,0.753,0.421c0.261,0.098,0.523,0.146,0.787,0.146c0.27,0,0.491-0.063,0.663-0.189
		c0.172-0.126,0.258-0.298,0.258-0.516v-0.018c0-0.109-0.03-0.204-0.09-0.284c-0.061-0.08-0.143-0.15-0.245-0.211
		c-0.104-0.06-0.223-0.113-0.357-0.159s-0.274-0.089-0.418-0.129c-0.172-0.052-0.346-0.107-0.521-0.168s-0.333-0.136-0.474-0.228
		s-0.255-0.207-0.344-0.345s-0.134-0.31-0.134-0.517v-0.017c0-0.189,0.037-0.363,0.112-0.521c0.074-0.157,0.179-0.292,0.314-0.404
		c0.135-0.111,0.295-0.198,0.481-0.258c0.187-0.061,0.389-0.091,0.606-0.091c0.275,0,0.554,0.045,0.835,0.134
		s0.537,0.208,0.767,0.357l-0.302,0.499c-0.206-0.132-0.423-0.237-0.649-0.314s-0.449-0.116-0.667-0.116
		c-0.265,0-0.474,0.062-0.629,0.186c-0.154,0.123-0.232,0.276-0.232,0.46v0.018c0,0.103,0.032,0.193,0.095,0.271
		c0.063,0.078,0.148,0.146,0.254,0.202c0.106,0.058,0.229,0.109,0.366,0.155s0.281,0.092,0.431,0.138
		c0.172,0.052,0.343,0.109,0.512,0.172c0.169,0.063,0.323,0.144,0.461,0.241s0.248,0.215,0.331,0.353s0.125,0.308,0.125,0.508v0.018
		C206.221,122.475,206.179,122.662,206.096,122.825z"/>
	<path d="M208.269,122.244c0,0.275,0.068,0.468,0.206,0.577s0.318,0.163,0.542,0.163c0.115,0,0.223-0.011,0.323-0.034
		c0.101-0.022,0.208-0.063,0.322-0.12v0.567c-0.114,0.063-0.236,0.111-0.365,0.143s-0.274,0.047-0.435,0.047
		c-0.179,0-0.345-0.022-0.5-0.068c-0.154-0.046-0.288-0.119-0.399-0.22c-0.112-0.101-0.2-0.23-0.263-0.392
		c-0.063-0.16-0.095-0.353-0.095-0.576v-2.686h-0.62v-0.585h0.62v-1.343h0.663v1.343h1.411v0.585h-1.411V122.244z"/>
	<path d="M211.514,123.51h-0.663v-4.449h0.663v1.161c0.08-0.184,0.181-0.353,0.301-0.508c0.12-0.154,0.258-0.288,0.413-0.399
		c0.155-0.112,0.324-0.197,0.508-0.254c0.184-0.058,0.382-0.084,0.594-0.078v0.715h-0.052c-0.24,0-0.469,0.043-0.684,0.129
		c-0.216,0.086-0.403,0.215-0.564,0.388c-0.16,0.172-0.287,0.386-0.378,0.641c-0.092,0.256-0.138,0.55-0.138,0.882V123.51z"/>
	<path d="M216.505,123.656c-0.189,0.459-0.4,0.783-0.633,0.973s-0.515,0.284-0.848,0.284c-0.184,0-0.35-0.02-0.499-0.057
		s-0.299-0.093-0.447-0.168l0.224-0.524c0.108,0.057,0.216,0.099,0.322,0.125c0.106,0.025,0.231,0.038,0.375,0.038
		c0.2,0,0.37-0.06,0.508-0.181c0.138-0.12,0.272-0.339,0.404-0.654l-2.022-4.432h0.731l1.618,3.709l1.429-3.709h0.705
		L216.505,123.656z"/>
</g>
</svg>
